<svg width="327" height="69" viewBox="0 0 327 69" fill="none" xmlns="http://www.w3.org/2000/svg">
<g filter="url(#filter0_d)">
<path d="M44.8972 37.3468C44.8972 40.7005 43.9437 43.4296 42.0366 45.5339C39.2747 48.5808 35.066 50.1042 29.4107 50.1042H10.7019V5.22286H28.0626C36.4799 5.22286 40.6885 9.12464 40.6885 16.9282C40.6885 19.2736 40.2282 21.2355 39.3076 22.8137C38.5404 24.1509 37.3567 25.2907 35.7565 26.2333C39.3514 26.9786 41.8065 28.4143 43.1217 30.5406C44.3054 32.4915 44.8972 34.7602 44.8972 37.3468ZM29.9039 18.4736C29.9039 16.435 28.9832 15.0869 27.1419 14.4293C26.4843 14.2101 25.6075 14.1005 24.5115 14.1005H22.3743V22.8795H24.5115C26.5282 22.8795 27.9749 22.3863 28.8517 21.3999C29.5531 20.6108 29.9039 19.6353 29.9039 18.4736ZM33.2248 36.5576C33.2248 33.9491 31.8767 32.4147 29.1805 31.9544C28.3256 31.8229 26.857 31.7571 24.7746 31.7571H22.3743V41.2266H24.9718C27.953 41.2266 30.0354 40.8759 31.2191 40.1744C32.5562 39.3853 33.2248 38.1797 33.2248 36.5576ZM78.3126 42.8377L74.2684 51.1893C71.8572 49.7645 69.8624 48.3178 68.2842 46.8491C65.0181 49.7864 60.9958 51.2551 56.2172 51.2551C52.2058 51.2551 48.8849 50.2796 46.2545 48.3287C43.3172 46.1806 41.8486 43.1665 41.8486 39.2867C41.8486 34.6835 44.7639 30.8255 50.5947 27.7129C48.8411 25.6305 47.7889 24.2824 47.4382 23.6686C46.6052 22.2657 46.1887 20.6327 46.1887 18.7695C46.1887 16.0295 47.4272 13.7388 49.9042 11.8975C52.2716 10.1439 55.0773 9.26712 58.3215 9.26712C61.7849 9.26712 64.6564 10.0891 66.9361 11.7331C69.3692 13.4867 70.5858 15.8103 70.5858 18.7037C70.5858 22.4301 67.9444 25.7729 62.6617 28.7322L67.791 33.8615C68.5801 32.349 69.0952 30.968 69.3363 29.7186L77.1618 32.2503C76.4604 35.078 75.3644 37.5988 73.8738 39.8128C74.9698 40.7553 76.4494 41.7637 78.3126 42.8377ZM62.0698 19.2627C62.0698 18.2544 61.7082 17.4324 60.9848 16.7967C60.2834 16.1391 59.4723 15.8103 58.5517 15.8103C57.7187 15.8103 56.9844 16.0295 56.3487 16.4679C55.5596 17.0159 55.165 17.7831 55.165 18.7695C55.165 19.9312 55.5486 20.9286 56.3158 21.7616L58.2557 23.8988L60.393 22.4849C61.5109 21.7397 62.0698 20.6656 62.0698 19.2627ZM62.6617 40.6019L54.8691 32.8751C52.5456 34.2122 51.3838 36.2069 51.3838 38.8592C51.3838 39.9552 51.877 40.9745 52.8634 41.9171C53.8717 42.8597 54.88 43.3309 55.8884 43.3309C58.5407 43.3309 60.7985 42.4213 62.6617 40.6019ZM130.864 50.1042H119.192L115.871 24.2605L105.02 50.1042H100.384L90.0272 24.2605L86.2131 50.1042H74.6064L82.2346 5.22286H93.7426L102.85 29.1596L112.484 5.22286H124.091L130.864 50.1042ZM184.51 14.9883H174.843V50.1042H163.171V14.9883H153.669V5.22286H184.51V14.9883ZM219.405 31.0995C219.405 33.7957 219.186 36.0973 218.748 38.0044C218.068 40.9636 216.446 43.6597 213.881 46.0929C210.243 49.5343 205.376 51.2551 199.283 51.2551C193.079 51.2551 188.235 49.5014 184.75 45.9942C182.908 44.1529 181.648 41.8404 180.968 39.0565C180.486 37.0837 180.245 34.4314 180.245 31.0995V5.22286H191.917V29.5213C191.917 31.4722 191.95 32.9299 192.016 33.8943C192.235 36.9412 193.627 39.0675 196.192 40.2731C197.244 40.7772 198.406 41.0293 199.677 41.0293C202.527 41.0293 204.675 40.032 206.122 38.0372C207.196 36.5686 207.733 33.7299 207.733 29.5213V5.22286H219.405V31.0995ZM258.772 27.6471C258.772 32.3161 257.358 36.6453 254.53 40.6348C251.725 44.6023 248.13 47.3533 243.746 48.8877C241.422 49.6987 239.055 50.1042 236.644 50.1042H219.414V5.22286H236.644C240.852 5.22286 244.754 6.39559 248.349 8.74104C251.878 11.0207 254.585 14.0676 256.47 17.8817C258.005 21.0382 258.772 24.2933 258.772 27.6471ZM246.639 27.6471C246.639 24.5564 245.773 21.8602 244.042 19.5586C241.74 16.5117 238.31 14.9883 233.75 14.9883H231.087V40.3388H233.75C238.331 40.3388 241.762 38.8154 244.042 35.7685C245.773 33.445 246.639 30.7378 246.639 27.6471ZM268.481 50.1042H256.808V5.22286H268.481V50.1042ZM316.166 27.8115C316.166 33.9053 314.139 39.2538 310.083 43.857C305.458 49.0959 299.2 51.7154 291.309 51.7154C283.44 51.7154 277.192 49.0959 272.567 43.857C268.512 39.2538 266.484 33.9053 266.484 27.8115C266.484 25.0277 267.032 22.1781 268.128 19.2627C269.224 16.3254 270.693 13.8155 272.534 11.7331C277.159 6.49423 283.418 3.87478 291.309 3.87478C299.2 3.87478 305.458 6.49423 310.083 11.7331C314.139 16.3363 316.166 21.6958 316.166 27.8115ZM304.033 27.8115C304.033 24.655 303.025 21.926 301.008 19.6244C298.422 16.6871 295.189 15.2184 291.309 15.2184C288.635 15.2184 286.212 15.9747 284.042 17.4872C281.872 18.9777 280.327 20.9724 279.406 23.4713C278.88 24.8961 278.617 26.3429 278.617 27.8115C278.617 30.8365 279.625 33.5436 281.642 35.9329C284.141 38.8921 287.363 40.3717 291.309 40.3717C295.254 40.3717 298.488 38.9031 301.008 35.9658C303.025 33.6203 304.033 30.9022 304.033 27.8115Z" fill="white"/>
<path d="M159.972 35.2424C159.972 42.8268 156.641 47.7698 149.977 50.0714C147.653 50.8824 145.154 51.2879 142.48 51.2879C136.869 51.2879 131.663 49.5891 126.862 46.1915L131.86 36.7878C135.367 39.9443 138.798 41.5225 142.151 41.5225C143.664 41.5225 144.946 41.1718 145.998 40.4704C147.226 39.6812 147.84 38.5633 147.84 37.1166C147.84 35.8014 147.16 34.7054 145.801 33.8286C144.793 33.171 143.094 32.5024 140.705 31.8229C137.811 30.968 135.992 30.3762 135.247 30.0474C134.063 29.5432 133.055 28.9514 132.222 28.2718C129.832 26.299 128.638 23.3179 128.638 19.3284C128.638 15.1636 129.876 11.7112 132.353 8.9712C135.247 5.74895 139.104 4.13782 143.927 4.13782C148.771 4.13782 153.517 5.35438 158.164 7.78751L153.495 16.8624C150.952 14.8896 148.388 13.9032 145.801 13.9032C144.552 13.9032 143.434 14.2211 142.447 14.8567C141.329 15.5801 140.77 16.5446 140.77 17.7502C140.77 18.9339 141.505 19.9532 142.973 20.808C143.631 21.2026 145.604 21.8821 148.892 22.8466C153.013 24.0522 155.95 25.762 157.704 27.9759C159.216 29.861 159.972 32.2832 159.972 35.2424Z" fill="#DB1E30"/>
</g>
<defs>
<filter id="filter0_d" x="0.701843" y="0.874786" width="325.464" height="67.8406" filterUnits="userSpaceOnUse" color-interpolation-filters="sRGB">
<feFlood flood-opacity="0" result="BackgroundImageFix"/>
<feColorMatrix in="SourceAlpha" type="matrix" values="0 0 0 0 0 0 0 0 0 0 0 0 0 0 0 0 0 0 127 0"/>
<feOffset dy="7"/>
<feGaussianBlur stdDeviation="5"/>
<feColorMatrix type="matrix" values="0 0 0 0 0 0 0 0 0 0 0 0 0 0 0 0 0 0 0.25 0"/>
<feBlend mode="normal" in2="BackgroundImageFix" result="effect1_dropShadow"/>
<feBlend mode="normal" in="SourceGraphic" in2="effect1_dropShadow" result="shape"/>
</filter>
</defs>
</svg>
